<svg
  xmlns="http://www.w3.org/2000/svg"
  width="1024"
  height="1024"
  viewBox="0 0 1024 1024"
  fill="none"
>
  <title>Markdown Clipboard icon</title>
  <circle
    cx="512"
    cy="512"
    r="486"
    stroke="#166B76"
    stroke-width="28"
  />

  <path
    d="M 622 146 A 370 370 0 1 1 402 146"
    stroke="#177786"
    stroke-width="72"
    stroke-linecap="round"
  />
  <path
    d="M 622 146 A 370 370 0 1 1 402 146"
    stroke="#A6F5F0"
    stroke-width="44"
    stroke-linecap="round"
  />
  <path
    d="M 406 92 L 534 170 L 414 272 Z"
    fill="#A6F5F0"
    stroke="#177786"
    stroke-linejoin="round"
    stroke-width="20"
  />

  <path
    d="M512 222 C644 304 760 308 834 332 C834 590 772 794 512 910 C252 794 190 590 190 332 C264 308 380 304 512 222 Z"
    fill="#123E5A"
    stroke="#0C3147"
    stroke-width="18"
    stroke-linejoin="round"
  />
  <path
    d="M512 274 C616 338 700 342 752 358 C752 568 704 724 512 816 C320 724 272 568 272 358 C324 342 408 338 512 274 Z"
    fill="#2A7393"
  />
  <path
    d="M512 306 C592 356 658 358 700 370"
    stroke="#A6F5F0"
    stroke-opacity="0.65"
    stroke-width="18"
    stroke-linecap="round"
  />

  <path
    d="M344 742 V 336 L 512 592 L 680 336 V 742"
    stroke="#0C3147"
    stroke-width="104"
    stroke-linecap="round"
    stroke-linejoin="round"
  />
  <path
    d="M344 742 V 336 L 512 592 L 680 336 V 742"
    stroke="#FFFFFF"
    stroke-width="76"
    stroke-linecap="round"
    stroke-linejoin="round"
  />
</svg>
